<mxfile host="drawio-plugin" modified="2025-03-01T15:48:49.181Z" agent="5.0 (Windows NT 6.2; Win64; x64) AppleWebKit/537.36 (KHTML, like Gecko) Chrome/104.0.5112.102 Safari/537.36" etag="5fXPd0eCFVr9cFN7t3OX" version="20.5.3" type="embed"><diagram id="23iRSUPoRavnBvh4doch" name="Page-1"><mxGraphModel dx="2707" dy="-565" grid="1" gridSize="10" guides="1" tooltips="1" connect="1" arrows="1" fold="1" page="1" pageScale="1" pageWidth="827" pageHeight="1169" math="0" shadow="0"><root><mxCell id="0"/><mxCell id="1" parent="0"/><mxCell id="2" style="edgeStyle=orthogonalEdgeStyle;rounded=0;orthogonalLoop=1;jettySize=auto;html=1;entryX=0;entryY=0.5;entryDx=0;entryDy=0;endArrow=none;startFill=0;" edge="1" parent="1"><mxGeometry relative="1" as="geometry"><mxPoint x="-2160" y="1620" as="sourcePoint"/><mxPoint x="-1910" y="1620" as="targetPoint"/></mxGeometry></mxCell><mxCell id="3" value="User" style="shape=umlActor;verticalLabelPosition=bottom;verticalAlign=top;html=1;outlineConnect=0;" vertex="1" parent="1"><mxGeometry x="-2200" y="1580" width="35" height="70" as="geometry"/></mxCell><mxCell id="4" value=":Frontend" style="rounded=0;whiteSpace=wrap;html=1;" vertex="1" parent="1"><mxGeometry x="-1910" y="1595" width="130.91" height="40" as="geometry"/></mxCell><mxCell id="5" value="" style="endArrow=classic;html=1;rounded=0;" edge="1" parent="1"><mxGeometry width="50" height="50" relative="1" as="geometry"><mxPoint x="-2150" y="1605" as="sourcePoint"/><mxPoint x="-1930" y="1605" as="targetPoint"/></mxGeometry></mxCell><mxCell id="6" value="" style="endArrow=classic;html=1;rounded=0;dashed=1;" edge="1" parent="1"><mxGeometry width="50" height="50" relative="1" as="geometry"><mxPoint x="-1940" y="1635" as="sourcePoint"/><mxPoint x="-2150" y="1635" as="targetPoint"/></mxGeometry></mxCell><mxCell id="7" value="&amp;nbsp;:Router" style="rounded=0;whiteSpace=wrap;html=1;" vertex="1" parent="1"><mxGeometry x="-1570" y="1595" width="130.91" height="40" as="geometry"/></mxCell><mxCell id="8" style="edgeStyle=orthogonalEdgeStyle;rounded=0;orthogonalLoop=1;jettySize=auto;html=1;entryX=0;entryY=0.5;entryDx=0;entryDy=0;endArrow=none;startFill=0;" edge="1" parent="1" target="7"><mxGeometry relative="1" as="geometry"><mxPoint x="-1779.09" y="1615" as="sourcePoint"/><mxPoint x="-1574.09" y="1615" as="targetPoint"/></mxGeometry></mxCell><mxCell id="9" value="" style="endArrow=classic;html=1;rounded=0;" edge="1" parent="1"><mxGeometry width="50" height="50" relative="1" as="geometry"><mxPoint x="-1754.09" y="1600" as="sourcePoint"/><mxPoint x="-1594.09" y="1600" as="targetPoint"/></mxGeometry></mxCell><mxCell id="10" value="&amp;nbsp;" style="text;whiteSpace=wrap;html=1;" vertex="1" parent="1"><mxGeometry x="-1670" y="1580" width="40" height="40" as="geometry"/></mxCell><mxCell id="11" value=":ClassController&amp;nbsp;" style="rounded=0;whiteSpace=wrap;html=1;" vertex="1" parent="1"><mxGeometry x="-1079.09" y="1595" width="130.91" height="40" as="geometry"/></mxCell><mxCell id="12" style="edgeStyle=orthogonalEdgeStyle;rounded=0;orthogonalLoop=1;jettySize=auto;html=1;entryX=0;entryY=0.5;entryDx=0;entryDy=0;endArrow=none;startFill=0;" edge="1" parent="1" target="11"><mxGeometry relative="1" as="geometry"><mxPoint x="-1439.09" y="1615" as="sourcePoint"/><mxPoint x="-1234.09" y="1615" as="targetPoint"/></mxGeometry></mxCell><mxCell id="13" value="" style="endArrow=classic;html=1;rounded=0;" edge="1" parent="1"><mxGeometry width="50" height="50" relative="1" as="geometry"><mxPoint x="-1414.09" y="1600" as="sourcePoint"/><mxPoint x="-1100" y="1600" as="targetPoint"/></mxGeometry></mxCell><mxCell id="14" value="" style="endArrow=classic;html=1;rounded=0;dashed=1;" edge="1" parent="1"><mxGeometry width="50" height="50" relative="1" as="geometry"><mxPoint x="-1100" y="1630" as="sourcePoint"/><mxPoint x="-1420" y="1630" as="targetPoint"/></mxGeometry></mxCell><mxCell id="15" value=":ClassService&amp;nbsp;" style="rounded=0;whiteSpace=wrap;html=1;" vertex="1" parent="1"><mxGeometry x="-619.09" y="1595" width="130.91" height="40" as="geometry"/></mxCell><mxCell id="16" style="edgeStyle=orthogonalEdgeStyle;rounded=0;orthogonalLoop=1;jettySize=auto;html=1;entryX=0;entryY=0.5;entryDx=0;entryDy=0;endArrow=none;startFill=0;" edge="1" parent="1" target="15"><mxGeometry relative="1" as="geometry"><mxPoint x="-948.18" y="1615" as="sourcePoint"/><mxPoint x="-743.18" y="1615" as="targetPoint"/></mxGeometry></mxCell><mxCell id="17" value="" style="endArrow=classic;html=1;rounded=0;" edge="1" parent="1"><mxGeometry width="50" height="50" relative="1" as="geometry"><mxPoint x="-923.18" y="1600" as="sourcePoint"/><mxPoint x="-629.09" y="1600" as="targetPoint"/></mxGeometry></mxCell><mxCell id="18" value="" style="endArrow=classic;html=1;rounded=0;dashed=1;" edge="1" parent="1"><mxGeometry width="50" height="50" relative="1" as="geometry"><mxPoint x="-629.09" y="1630" as="sourcePoint"/><mxPoint x="-929.09" y="1630" as="targetPoint"/></mxGeometry></mxCell><mxCell id="19" style="edgeStyle=orthogonalEdgeStyle;rounded=0;orthogonalLoop=1;jettySize=auto;html=1;endArrow=none;startFill=0;" edge="1" parent="1" source="20" target="25"><mxGeometry relative="1" as="geometry"/></mxCell><mxCell id="20" value=":ClassRepository" style="rounded=0;whiteSpace=wrap;html=1;" vertex="1" parent="1"><mxGeometry x="-279.0899999999999" y="1595" width="130.91" height="40" as="geometry"/></mxCell><mxCell id="21" style="edgeStyle=orthogonalEdgeStyle;rounded=0;orthogonalLoop=1;jettySize=auto;html=1;entryX=0;entryY=0.5;entryDx=0;entryDy=0;endArrow=none;startFill=0;" edge="1" parent="1" target="20"><mxGeometry relative="1" as="geometry"><mxPoint x="-488.17999999999984" y="1615" as="sourcePoint"/><mxPoint x="-283.17999999999984" y="1615" as="targetPoint"/></mxGeometry></mxCell><mxCell id="22" value="" style="endArrow=classic;html=1;rounded=0;" edge="1" parent="1"><mxGeometry width="50" height="50" relative="1" as="geometry"><mxPoint x="-463.1799999999999" y="1600" as="sourcePoint"/><mxPoint x="-303.1799999999997" y="1600" as="targetPoint"/></mxGeometry></mxCell><mxCell id="23" value="" style="endArrow=classic;html=1;rounded=0;dashed=1;" edge="1" parent="1"><mxGeometry width="50" height="50" relative="1" as="geometry"><mxPoint x="-299.09000000000003" y="1630" as="sourcePoint"/><mxPoint x="-459.09" y="1630" as="targetPoint"/></mxGeometry></mxCell><mxCell id="24" value="4. POST /api/classes (name, description, privacy)" style="text;html=1;align=center;verticalAlign=middle;resizable=0;points=[];autosize=1;strokeColor=none;fillColor=none;" vertex="1" parent="1"><mxGeometry x="-1825" y="1560" width="290" height="30" as="geometry"/></mxCell><mxCell id="25" value="&amp;nbsp;:Database" style="rounded=0;whiteSpace=wrap;html=1;" vertex="1" parent="1"><mxGeometry x="260.91000000000014" y="1595" width="130.91" height="40" as="geometry"/></mxCell><mxCell id="26" value="Create Class&amp;nbsp;" style="text;html=1;align=center;verticalAlign=middle;whiteSpace=wrap;rounded=0;fontSize=20;" vertex="1" parent="1"><mxGeometry x="-1265" y="1430" width="345" height="30" as="geometry"/></mxCell><mxCell id="27" value="1. handleCreateClassClick()&lt;div&gt;3. handleCreateClassSubmit(name, description, privacy)&lt;/div&gt;" style="text;html=1;align=center;verticalAlign=middle;resizable=0;points=[];autosize=1;strokeColor=none;fillColor=none;" vertex="1" parent="1"><mxGeometry x="-2195" y="1540" width="320" height="40" as="geometry"/></mxCell><mxCell id="28" value="" style="endArrow=classic;html=1;rounded=0;dashed=1;" edge="1" parent="1"><mxGeometry width="50" height="50" relative="1" as="geometry"><mxPoint x="-1594.09" y="1630" as="sourcePoint"/><mxPoint x="-1754.09" y="1630" as="targetPoint"/></mxGeometry></mxCell><mxCell id="29" value="" style="endArrow=classic;html=1;rounded=0;" edge="1" parent="1"><mxGeometry width="50" height="50" relative="1" as="geometry"><mxPoint x="-129.08999999999995" y="1599.38" as="sourcePoint"/><mxPoint x="240.91000000000003" y="1600" as="targetPoint"/></mxGeometry></mxCell><mxCell id="30" value="" style="endArrow=classic;html=1;rounded=0;dashed=1;" edge="1" parent="1"><mxGeometry width="50" height="50" relative="1" as="geometry"><mxPoint x="230.91000000000003" y="1630" as="sourcePoint"/><mxPoint x="-129.09" y="1630" as="targetPoint"/></mxGeometry></mxCell><mxCell id="31" value="&amp;nbsp;" style="text;html=1;align=center;verticalAlign=middle;resizable=0;points=[];autosize=1;strokeColor=none;fillColor=none;" vertex="1" parent="1"><mxGeometry x="-1340" y="1645" width="30" height="30" as="geometry"/></mxCell><mxCell id="32" value="9. errorResponse(400)&lt;div&gt;&amp;nbsp;17. successResponse(201, classRecord)&lt;/div&gt;" style="text;html=1;align=center;verticalAlign=middle;resizable=0;points=[];autosize=1;strokeColor=none;fillColor=none;" vertex="1" parent="1"><mxGeometry x="-1800" y="1645" width="240" height="40" as="geometry"/></mxCell><mxCell id="33" value="2. displayCreateClassForm()&lt;div&gt;18. displayMessage(&quot;สร้า class สำเร็จ&quot;)&lt;/div&gt;" style="text;html=1;align=center;verticalAlign=middle;resizable=0;points=[];autosize=1;strokeColor=none;fillColor=none;" vertex="1" parent="1"><mxGeometry x="-2150" y="1645" width="230" height="40" as="geometry"/></mxCell><mxCell id="34" style="edgeStyle=orthogonalEdgeStyle;rounded=0;orthogonalLoop=1;jettySize=auto;html=1;entryX=0.5;entryY=1;entryDx=0;entryDy=0;endArrow=none;startFill=0;" edge="1" parent="1" source="35"><mxGeometry relative="1" as="geometry"><mxPoint x="-1505.91" y="1635" as="targetPoint"/></mxGeometry></mxCell><mxCell id="35" value="&amp;nbsp;:Middleware" style="rounded=0;whiteSpace=wrap;html=1;" vertex="1" parent="1"><mxGeometry x="-1570.91" y="1870" width="130.91" height="40" as="geometry"/></mxCell><mxCell id="36" value="" style="endArrow=classic;html=1;rounded=0;" edge="1" parent="1"><mxGeometry width="50" height="50" relative="1" as="geometry"><mxPoint x="-1521" y="1660" as="sourcePoint"/><mxPoint x="-1520.91" y="1860" as="targetPoint"/></mxGeometry></mxCell><mxCell id="37" value="" style="endArrow=classic;html=1;rounded=0;dashed=1;" edge="1" parent="1"><mxGeometry width="50" height="50" relative="1" as="geometry"><mxPoint x="-1490.91" y="1860" as="sourcePoint"/><mxPoint x="-1490.91" y="1660" as="targetPoint"/></mxGeometry></mxCell><mxCell id="38" value="5. validateRequest()" style="text;html=1;align=center;verticalAlign=middle;resizable=0;points=[];autosize=1;strokeColor=none;fillColor=none;" vertex="1" parent="1"><mxGeometry x="-1650" y="1775" width="130" height="30" as="geometry"/></mxCell><mxCell id="39" value="" style="endArrow=classic;html=1;rounded=0;exitX=0.25;exitY=0;exitDx=0;exitDy=0;entryX=0.75;entryY=0;entryDx=0;entryDy=0;" edge="1" parent="1" source="11" target="11"><mxGeometry width="50" height="50" relative="1" as="geometry"><mxPoint x="-1079.09" y="1570" as="sourcePoint"/><mxPoint x="-949.09" y="1550" as="targetPoint"/><Array as="points"><mxPoint x="-1045.35" y="1560"/><mxPoint x="-1045.0900000000001" y="1550"/><mxPoint x="-979.09" y="1550"/></Array></mxGeometry></mxCell><mxCell id="40" value="7. validateInput()" style="text;html=1;align=center;verticalAlign=middle;resizable=0;points=[];autosize=1;strokeColor=none;fillColor=none;" vertex="1" parent="1"><mxGeometry x="-1068.63" y="1505" width="110" height="30" as="geometry"/></mxCell><mxCell id="41" value="8. [invalidInput (4.1a)] returnError(&quot;ข้อมูลไม่ครบถ้วนหรือข้อมูลมไม่ถูกต้อง&quot;)&lt;div&gt;&amp;nbsp;16. successResponse(201, classRecord)&lt;/div&gt;" style="text;html=1;align=center;verticalAlign=middle;resizable=0;points=[];autosize=1;strokeColor=none;fillColor=none;" vertex="1" parent="1"><mxGeometry x="-1465" y="1640" width="400" height="40" as="geometry"/></mxCell><mxCell id="42" style="edgeStyle=orthogonalEdgeStyle;rounded=0;orthogonalLoop=1;jettySize=auto;html=1;endArrow=none;startFill=0;exitX=1;exitY=0.5;exitDx=0;exitDy=0;" edge="1" parent="1" source="35"><mxGeometry relative="1" as="geometry"><mxPoint x="-1010" y="1636" as="targetPoint"/><mxPoint x="-1334.79" y="1925" as="sourcePoint"/><Array as="points"><mxPoint x="-1400" y="1890"/><mxPoint x="-1400" y="1800"/><mxPoint x="-1010" y="1800"/><mxPoint x="-1010" y="1636"/></Array></mxGeometry></mxCell><mxCell id="43" value="6. CreateClass(name, description, privacy)" style="text;html=1;align=center;verticalAlign=middle;resizable=0;points=[];autosize=1;strokeColor=none;fillColor=none;" vertex="1" parent="1"><mxGeometry x="-1320" y="1745" width="250" height="30" as="geometry"/></mxCell><mxCell id="44" value="&amp;nbsp;" style="text;html=1;align=center;verticalAlign=middle;resizable=0;points=[];autosize=1;strokeColor=none;fillColor=none;" vertex="1" parent="1"><mxGeometry x="-793.1800000000001" y="1560" width="30" height="30" as="geometry"/></mxCell><mxCell id="45" value="11. insertClass(name, description, privacy, userID)" style="text;html=1;align=center;verticalAlign=middle;resizable=0;points=[];autosize=1;strokeColor=none;fillColor=none;" vertex="1" parent="1"><mxGeometry x="-523.1800000000001" y="1565" width="290" height="30" as="geometry"/></mxCell><mxCell id="46" value="12. INSERT INTO classes (name, description, privacy, owner_id) VALUES(?,?,?,?)" style="text;html=1;align=center;verticalAlign=middle;resizable=0;points=[];autosize=1;strokeColor=none;fillColor=none;" vertex="1" parent="1"><mxGeometry x="-154.09" y="1565" width="460" height="30" as="geometry"/></mxCell><mxCell id="47" value="13. affectedRows/classRecord" style="text;html=1;align=center;verticalAlign=middle;resizable=0;points=[];autosize=1;strokeColor=none;fillColor=none;" vertex="1" parent="1"><mxGeometry x="-29.090000000000003" y="1640" width="190" height="30" as="geometry"/></mxCell><mxCell id="48" value="14. returnClassRecord(classRecord)" style="text;html=1;align=center;verticalAlign=middle;resizable=0;points=[];autosize=1;strokeColor=none;fillColor=none;" vertex="1" parent="1"><mxGeometry x="-489.09" y="1645" width="220" height="30" as="geometry"/></mxCell><mxCell id="49" value="15. returnClassRecord(classRecord)" style="text;html=1;align=center;verticalAlign=middle;resizable=0;points=[];autosize=1;strokeColor=none;fillColor=none;" vertex="1" parent="1"><mxGeometry x="-888.1800000000001" y="1645" width="220" height="30" as="geometry"/></mxCell><mxCell id="50" value="10. [vaidInput (4.1)] CreateClass(name, description, privacy)" style="text;html=1;align=center;verticalAlign=middle;resizable=0;points=[];autosize=1;strokeColor=none;fillColor=none;" vertex="1" parent="1"><mxGeometry x="-948.1800000000001" y="1560" width="340" height="30" as="geometry"/></mxCell><mxCell id="51" value="" style="endArrow=classic;html=1;rounded=0;" edge="1" parent="1"><mxGeometry width="50" height="50" relative="1" as="geometry"><mxPoint x="-1429.09" y="1876" as="sourcePoint"/><mxPoint x="-1030" y="1645" as="targetPoint"/><Array as="points"><mxPoint x="-1409.09" y="1876"/><mxPoint x="-1409.09" y="1786"/><mxPoint x="-1030" y="1790"/><mxPoint x="-1030" y="1710"/></Array></mxGeometry></mxCell><mxCell id="52" value="" style="endArrow=classic;html=1;rounded=0;exitX=0.25;exitY=0;exitDx=0;exitDy=0;entryX=0.75;entryY=0;entryDx=0;entryDy=0;" edge="1" parent="1"><mxGeometry width="50" height="50" relative="1" as="geometry"><mxPoint x="-587.0899999999999" y="1595" as="sourcePoint"/><mxPoint x="-522.0899999999999" y="1595" as="targetPoint"/><Array as="points"><mxPoint x="-586.44" y="1560"/><mxPoint x="-586.1800000000001" y="1550"/><mxPoint x="-520.1800000000001" y="1550"/></Array></mxGeometry></mxCell><mxCell id="53" value="22. verifyCurrentPassword(userId, currentPassword)" style="text;html=1;align=center;verticalAlign=middle;resizable=0;points=[];autosize=1;strokeColor=none;fillColor=none;" vertex="1" parent="1"><mxGeometry x="-698.1800000000001" y="1510" width="300" height="30" as="geometry"/></mxCell></root></mxGraphModel></diagram></mxfile>